<?xml version="1.0" standalone="no"?><!DOCTYPE svg PUBLIC "-//W3C//DTD SVG 1.1//EN" "http://www.w3.org/Graphics/SVG/1.1/DTD/svg11.dtd"><svg t="1628855172195" class="icon" viewBox="0 0 1024 1024" version="1.1" xmlns="http://www.w3.org/2000/svg" p-id="5222" xmlns:xlink="http://www.w3.org/1999/xlink" width="64" height="64"><defs><style type="text/css"></style></defs><path d="M626.989899 426.181818L527.434343 549.494949a33.616162 33.616162 0 0 1-52.525252 0l-99.717172-122.828282a53.010101 53.010101 0 0 1-11.79798-33.29293V32.323232h274.747475v360.565657a53.010101 53.010101 0 0 1-11.151515 33.292929z" fill="#F683A2" p-id="5223"></path><path d="M509.010101 858.505051a63.191919 63.191919 0 0 1-47.191919-21.171718L131.79798 464.484848a62.868687 62.868687 0 0 1 47.191919-104.727272H257.373737V63.515152A63.515152 63.515152 0 0 1 320.40404 0H677.575758a63.676768 63.676768 0 0 1 63.676767 63.515152v296.242424H839.191919a63.030303 63.030303 0 0 1 47.191919 104.727272L556.20202 837.333333a63.515152 63.515152 0 0 1-47.191919 21.171718zM182.707071 424.40404l326.30303 368.646465 326.30303-368.646465h-126.383838a32.323232 32.323232 0 0 1-32.323232-32.323232V63.515152L320.40404 64.646465l1.616162 327.434343a32.323232 32.323232 0 0 1-32.323232 32.323232z m656.484848 0zM879.757576 1024H144.242424a32.323232 32.323232 0 0 1 0-64.646465h735.515152a32.323232 32.323232 0 1 1 0 64.646465z" fill="#3D3D3D" p-id="5224"></path></svg>