<?xml version="1.0" encoding="iso-8859-1"?>
<!-- Generator: Adobe Illustrator 19.0.0, SVG Export Plug-In . SVG Version: 6.00 Build 0)  -->
<svg xmlns="http://www.w3.org/2000/svg" xmlns:xlink="http://www.w3.org/1999/xlink" version="1.1" id="Layer_1" x="0px" y="0px" viewBox="0 0 501.977 501.977" style="enable-background:new 0 0 501.977 501.977;" xml:space="preserve" width="512" height="512">
<g>
	<g>
		<g>
			<path style="fill:#4D93E8;" d="M351.636,491.977c-10.156,0-20.31-3.874-28.058-11.622L122.258,279.035     c-15.496-15.496-15.496-40.62,0-56.117L323.578,21.599c15.496-15.496,40.62-15.496,56.117,0c15.496,15.496,15.496,40.62,0,56.117     l-173.26,173.261l173.26,173.261c15.496,15.496,15.496,40.62,0,56.117C371.946,488.103,361.792,491.977,351.636,491.977z"/>
			<path d="M351.636,501.977c-13.27,0-25.745-5.167-35.129-14.551l-201.32-201.319c-19.37-19.371-19.37-50.889,0-70.259     l201.32-201.32c19.371-19.371,50.888-19.369,70.259,0c9.384,9.384,14.552,21.86,14.552,35.13s-5.168,25.746-14.552,35.13     L220.576,250.977l166.189,166.189c9.384,9.384,14.552,21.86,14.552,35.13s-5.168,25.746-14.552,35.13     C377.382,496.809,364.906,501.977,351.636,501.977z M351.636,19.99c-7.6,0-15.2,2.894-20.986,8.68L129.329,229.99     c-11.572,11.572-11.572,30.402,0,41.975l201.32,201.319c5.605,5.606,13.059,8.693,20.986,8.693s15.382-3.087,20.987-8.693     c5.606-5.606,8.694-13.06,8.694-20.987s-3.088-15.381-8.694-20.987l-173.26-173.261c-3.905-3.905-3.905-10.237,0-14.143     l173.26-173.26c5.606-5.606,8.694-13.06,8.694-20.988s-3.088-15.381-8.694-20.987C366.837,22.884,359.236,19.99,351.636,19.99z"/>
		</g>
	</g>
	<g>
		<path d="M150.977,245.977c-2.583,0-5.166-0.995-7.123-2.98c-3.877-3.933-3.831-10.265,0.103-14.142l13.969-13.768    c3.933-3.877,10.264-3.832,14.142,0.103c3.877,3.933,3.831,10.265-0.103,14.142l-13.969,13.768    C156.048,245.019,153.512,245.977,150.977,245.977z"/>
	</g>
	<g>
		<path d="M191.179,206.122c-2.583,0-5.166-0.995-7.123-2.98c-3.877-3.933-3.831-10.265,0.102-14.142L338.519,36.855    c3.931-3.876,10.264-3.832,14.142,0.102c3.877,3.934,3.831,10.265-0.103,14.142L198.198,203.244    C196.25,205.164,193.713,206.122,191.179,206.122z"/>
	</g>
</g>















</svg>
