<svg fill="none" height="512" viewBox="0 0 24 24" width="512" xmlns="http://www.w3.org/2000/svg"><path d="m7 2.25c-1.51878 0-2.75 1.23122-2.75 2.75v1c0 .9665.7835 1.75 1.75 1.75h12c.9665 0 1.75-.7835 1.75-1.75v-1c0-1.51878-1.2312-2.75-2.75-2.75z" fill="#2196f3"/><path d="m5 5.25c-1.51878 0-2.75 1.23122-2.75 2.75v11c0 1.5188 1.23122 2.75 2.75 2.75h14c1.5188 0 2.75-1.2312 2.75-2.75v-11c0-1.51878-1.2312-2.75-2.75-2.75z" fill="#607d8b"/><path d="m16.75 9.00001c0-.23801-.113-.46189-.3044-.6033-.1915-.1414-.4387-.18353-.6662-.11354l-5.99996 1.84613c-.3147.0969-.52944.3876-.52944.7169v3.5318c-.23458-.0829-.48702-.128-.75-.128-1.24264 0-2.25 1.0074-2.25 2.25s1.00736 2.25 2.25 2.25c1.24183 0 2.2487-1.006 2.25-2.2476 0-.0008 0-.0016 0-.0024v-5.0999l4.5-1.3846v3.3625c-.2346-.0829-.487-.128-.75-.128-1.2426 0-2.25 1.0074-2.25 2.25s1.0074 2.25 2.25 2.25c1.2418 0 2.2487-1.006 2.25-2.2476 0-.0008 0-.0016 0-.0024z" fill="#fff"/><g clip-rule="evenodd" fill="#000" fill-rule="evenodd"><path d="m16.75 9c0-.23801-.113-.46189-.3044-.60329-.1915-.1414-.4387-.18354-.6662-.11354l-5.99996 1.84613c-.3147.0969-.52944.3876-.52944.7169v3.5318c-.23458-.0829-.48702-.128-.75-.128-1.24264 0-2.25 1.0074-2.25 2.25s1.00736 2.25 2.25 2.25c1.24183 0 2.2487-1.006 2.25-2.2476v-.0024-5.0999l4.5-1.3846v3.3625c-.2346-.0829-.487-.128-.75-.128-1.2426 0-2.25 1.0074-2.25 2.25s1.0074 2.25 2.25 2.25c1.2418 0 2.2487-1.006 2.25-2.2476v-.0024zm-1.5 6.5c0-.4142-.3358-.75-.75-.75s-.75.3358-.75.75.3358.75.75.75.75-.3358.75-.75zm-6.75.25c-.41421 0-.75.3358-.75.75s.33579.75.75.75.75-.3358.75-.75-.33579-.75-.75-.75z"/><path d="m7 2.25c-1.51878 0-2.75 1.23122-2.75 2.75v.35352c-1.15425.32646-2 1.3877-2 2.64648v11c0 1.5188 1.23122 2.75 2.75 2.75h14c1.5188 0 2.75-1.2312 2.75-2.75v-11c0-1.25878-.8457-2.32002-2-2.64648v-.35352c0-1.51878-1.2312-2.75-2.75-2.75zm11.25 3v-.25c0-.69036-.5596-1.25-1.25-1.25h-10c-.69036 0-1.25.55964-1.25 1.25v.25zm-13.25 1.5c-.69036 0-1.25.55964-1.25 1.25v11c0 .6904.55964 1.25 1.25 1.25h14c.6904 0 1.25-.5596 1.25-1.25v-11c0-.69036-.5596-1.25-1.25-1.25z"/></g></svg>