<svg height="512pt" viewBox="-34 0 512 512" width="512pt" xmlns="http://www.w3.org/2000/svg"><path d="m443.3125 187.3125-22.625-22.625-52.6875 52.6875-52.6875-52.6875-22.625 22.625 52.6875 52.6875-52.6875 52.6875 22.625 22.625 52.6875-52.6875 52.6875 52.6875 22.625-22.625-52.6875-52.6875zm0 0" fill="#ef5350"/><path d="m256 512-166.351562-160h-89.648438v-192h89.648438l166.351562-160zm0 0" fill="#b3e5fc"/><path d="m192 112h32v32h-32zm0 0" fill="#fff"/><path d="m192 176h32v32h-32zm0 0" fill="#fff"/><path d="m0 256v96h89.648438l166.351562 160v-96l-166.351562-160zm0 0" fill="#81d4fa"/></svg>