<?xml version="1.0" encoding="iso-8859-1"?>
<!-- Generator: Adobe Illustrator 19.0.0, SVG Export Plug-In . SVG Version: 6.00 Build 0)  -->
<svg xmlns="http://www.w3.org/2000/svg" xmlns:xlink="http://www.w3.org/1999/xlink" version="1.1" id="Layer_1" x="0px" y="0px" viewBox="0 0 501.976 501.976" style="enable-background:new 0 0 501.976 501.976;" xml:space="preserve" width="512" height="512">
<g>
	<g>
		<g>
			<path style="fill:#4D93E8;" d="M150.329,491.976c10.156,0,20.31-3.874,28.058-11.622l201.319-201.319     c15.496-15.496,15.496-40.62,0-56.117L178.387,21.599c-15.496-15.496-40.62-15.496-56.117,0s-15.496,40.62,0,56.117     l173.26,173.261L122.27,424.237c-15.496,15.496-15.496,40.62,0,56.117C130.018,488.102,140.173,491.976,150.329,491.976z"/>
			<path d="M150.329,501.976c-13.271,0-25.746-5.167-35.13-14.551c-9.384-9.384-14.552-21.86-14.552-35.13     s5.168-25.746,14.552-35.13l166.189-166.189L115.199,84.787c-9.384-9.384-14.552-21.86-14.552-35.13s5.168-25.746,14.552-35.13     c19.372-19.37,50.889-19.369,70.259,0l201.319,201.319c9.384,9.384,14.552,21.86,14.552,35.13s-5.168,25.746-14.552,35.13     L185.458,487.426C176.074,496.809,163.599,501.976,150.329,501.976z M150.329,19.976c-7.929,0-15.382,3.087-20.987,8.693     c-5.606,5.606-8.694,13.06-8.694,20.987s3.088,15.381,8.694,20.987l173.26,173.261c3.905,3.905,3.905,10.237,0,14.142     l-173.26,173.261c-5.606,5.606-8.694,13.06-8.694,20.987s3.088,15.381,8.694,20.987c5.605,5.606,13.06,8.693,20.987,8.693     s15.381-3.087,20.986-8.693l201.319-201.319c5.606-5.606,8.694-13.06,8.694-20.987s-3.088-15.381-8.694-20.987L171.315,28.67     C165.71,23.064,158.257,19.976,150.329,19.976z"/>
		</g>
	</g>
	<g>
		<path d="M350.988,245.976c-2.536,0-5.071-0.958-7.02-2.878L330,229.33c-3.934-3.877-3.979-10.208-0.103-14.142    c3.879-3.934,10.209-3.979,14.142-0.103l13.969,13.768c3.934,3.877,3.979,10.208,0.103,14.142    C356.153,244.981,353.571,245.976,350.988,245.976z"/>
	</g>
	<g>
		<path d="M310.787,206.121c-2.535,0-5.071-0.958-7.02-2.878L149.406,51.099c-3.934-3.877-3.979-10.208-0.103-14.142    c3.879-3.934,10.208-3.979,14.142-0.103l154.361,152.145c3.934,3.877,3.979,10.208,0.103,14.142    C315.952,205.126,313.37,206.121,310.787,206.121z"/>
	</g>
</g>















</svg>
