<?xml version="1.0" ?><!DOCTYPE svg  PUBLIC '-//W3C//DTD SVG 1.1//EN'  'http://www.w3.org/Graphics/SVG/1.1/DTD/svg11.dtd'><svg enable-background="new 0 0 91 91" height="91px" id="Layer_1" version="1.1" viewBox="0 0 91 91" width="91px" xml:space="preserve" xmlns="http://www.w3.org/2000/svg" xmlns:xlink="http://www.w3.org/1999/xlink"><g><path d="M90.426,7.596c1.145-1.698-1.151-3.291-2.352-3.612c-0.698-0.187-1.424-0.188-2.141-0.238   c-2.22-0.155-16.505-0.35-21.322-0.922c-1.828-0.219-3.512,1.452-4.01,3.052c-1.131,3.633-1.12,19.573-0.78,23.363   c0.55,6.111,10.238,6.036,9.529,0c-0.428-3.66-0.269-12.627-0.291-13.348C79.174,25.75,84.9,41.395,81.358,54.949   c-3.524,13.487-13.427,23.408-27.395,25.637c-15.229,2.43-31.085-2.995-39.766-16.064C7.826,54.929,5.357,43.6,9.984,32.702   c3.134-7.38,9.174-13.125,15.846-17.364c3.169-2.016,6.449-3.882,9.705-5.755c3.169-1.825,5.523-3.325,9.256-3.741   c0.78-0.086,0.789-1.319,0-1.234c-6.875,0.766-13.522,0.529-19.978,3.542c-7.591,3.544-14.223,9.222-18.72,16.305   C-2.022,37.236-1.172,52.48,5.972,65.359c8.646,15.581,25.037,23.84,42.66,23.325C66.74,88.158,81.545,77.92,87.7,60.84   c6.274-17.418,0.163-37.427-12.435-50.671C77.324,10.104,88.763,10.071,90.426,7.596z"/></g></svg>