<?xml version="1.0" encoding="iso-8859-1"?>
<!-- Generator: Adobe Illustrator 19.0.0, SVG Export Plug-In . SVG Version: 6.00 Build 0)  -->
<svg xmlns="http://www.w3.org/2000/svg" xmlns:xlink="http://www.w3.org/1999/xlink" version="1.1" id="Layer_1" x="0px" y="0px" viewBox="0 0 502 502" style="enable-background:new 0 0 502 502;" xml:space="preserve" width="512" height="512">
<g>
	<g>
		<circle style="fill:#CCD7EB;" cx="251" cy="251" r="241"/>
		<path d="M251,502c-67.044,0-130.076-26.108-177.484-73.516S0,318.044,0,251S26.108,120.924,73.516,73.516S183.956,0,251,0    s130.076,26.108,177.484,73.516S502,183.956,502,251s-26.108,130.076-73.516,177.484S318.044,502,251,502z M251,20    C123.626,20,20,123.626,20,251s103.626,231,231,231s231-103.626,231-231S378.374,20,251,20z"/>
	</g>
	<g>
		<g>
			<path style="fill:#4D93E8;" d="M214.073,135.186l143.72,97.192c13.183,8.915,13.183,28.328,0,37.243l-143.72,97.192     c-14.929,10.096-35.073-0.6-35.073-18.622V153.808C179,135.786,199.144,125.091,214.073,135.186z"/>
			<path d="M201.486,380.683c-5.215,0-10.445-1.26-15.237-3.804C175.609,371.23,169,360.238,169,348.192V153.808     c0-12.046,6.609-23.039,17.249-28.688c10.639-5.647,23.447-4.966,33.426,1.782l143.721,97.192     c8.945,6.049,14.285,16.107,14.285,26.905s-5.34,20.856-14.285,26.905l-143.721,97.192     C214.19,378.806,207.85,380.683,201.486,380.683z M201.502,141.297c-1.995,0-4.001,0.494-5.875,1.488     c-4.15,2.203-6.627,6.324-6.627,11.022v194.384c0,4.699,2.478,8.819,6.627,11.022c4.151,2.204,8.952,1.947,12.843-0.685     l143.721-97.192c3.488-2.359,5.489-6.127,5.489-10.338s-2-7.979-5.489-10.338L208.471,143.47     C206.335,142.026,203.927,141.297,201.502,141.297z"/>
		</g>
	</g>
	<g>
		<path d="M432.279,189c-3.977,0-7.737-2.388-9.295-6.308c-19.172-48.226-57.998-86.417-106.521-104.779    c-5.166-1.955-7.769-7.727-5.813-12.892c1.955-5.165,7.726-7.768,12.892-5.813c53.766,20.346,96.785,62.661,118.027,116.095    c2.041,5.132-0.466,10.947-5.598,12.987C434.758,188.771,433.508,189,432.279,189z"/>
	</g>
	<g>
		<path d="M284.011,68.782c-0.558,0-1.124-0.047-1.692-0.144C272.049,66.888,261.512,66,251,66c-5.523,0-10-4.477-10-10    s4.477-10,10-10c11.635,0,23.303,0.983,34.68,2.923c5.444,0.928,9.105,6.094,8.177,11.539    C293.026,65.337,288.796,68.782,284.011,68.782z"/>
	</g>
</g>















</svg>
