<svg height="512pt" viewBox="-32 0 512 512" width="512pt" xmlns="http://www.w3.org/2000/svg"><g fill="#b0bec5"><path d="m288 320h160v32h-160zm0 0"/><path d="m288 400h160v32h-160zm0 0"/><path d="m288 240h160v32h-160zm0 0"/><path d="m288 160h160v32h-160zm0 0"/><path d="m288 80h160v32h-160zm0 0"/></g><path d="m256 512-166.351562-160h-89.648438v-192h89.648438l166.351562-160zm0 0" fill="#b3e5fc"/><path d="m192 112h32v32h-32zm0 0" fill="#fff"/><path d="m192 176h32v32h-32zm0 0" fill="#fff"/><path d="m0 256v96h89.648438l166.351562 160v-96l-166.351562-160zm0 0" fill="#81d4fa"/></svg>